<mxfile host="app.diagrams.net" modified="2024-07-29T02:01:07.813Z" agent="Mozilla/5.0 (Windows NT 10.0; Win64; x64) AppleWebKit/537.36 (KHTML, like Gecko) Chrome/127.0.0.0 Safari/537.36" version="24.6.5" etag="WYYCk5zuB4KdfM8ob6qc" type="github">
  <diagram name="第 1 页" id="XSo7-rY9Y3BUBaiEv-SI">
    <mxGraphModel>
      <root>
        <mxCell id="0" />
        <mxCell id="1" parent="0" />
      </root>
    </mxGraphModel>
  </diagram>
</mxfile>
